# xmcd
#
# Track frame offsets:
#	150
#	11902
#	29020
#	44610
#	64982
#	78197
#	98891
#	115933
#	131552
#	144906
#	159144
#	178262
#	191232
#	206467
#	222870
#	239649
#	255876
#	269176
#	284887
#	286480
#	289022
#
# Disc length: 4003 seconds
#
# Revision: 1
# Processed by: cddbd v1.5.2PL0 Copyright (c) Steve Scherf et al.
# Submitted via: audiograbber 1.83.01
#
DISCID=510fa115
DTITLE=Various Artist - CDX 071
DYEAR=1994
DGENRE=Country
TTITLE0=Chris Isaak - Dark Moon
TTITLE1=Mary Chapin Carpenter - He Thinks He'll Keep Her
TTITLE2=Mark Chesnutt - I Just Wanted You To Know
TTITLE3=John Michael Montgomery - I Swear
TTITLE4=Dennis Robbins - Mona Lisa On Cruise Control
TTITLE5=Smokin' Armadillos - Red Rock
TTITLE6=Brooks and Dunn - Rock My World (Little Country Girl)
TTITLE7=Confederate Railroad - She Never Cried
TTITLE8=Karen Donovan - Tell Me, Tell Me True
TTITLE9=Collin Raye - That's My Story
TTITLE10=Mark O'Connor - The Devil Comes Back To Georgia [w/Charlie Daniels, Jo
TTITLE10=hnny Cash, Marty Stuart and Travis Tritt]
TTITLE11=Becky Williams - The Trouble With Love
TTITLE12=Reba McEntire - They Asked About You
TTITLE13=Alabama - T.L.C. A.S.A.P.
TTITLE14=Highway 101 - Who's Gonna Love You
TTITLE15=Randy Travis - Wind In The Wire
TTITLE16=Mid South - We'll Go To The Well
TTITLE17=Turner Nichols - She Loves To Hear Me Rock [Dance Trax]
TTITLE18=Lisa Stewart - Salvation Army Angel Tree PSA
TTITLE19=Lisa Stewart - Salvation Army Angel Tree PSA 2
TTITLE20=Charlie Chase - Christmas Is For Kids
EXTD=
EXTT0=
EXTT1=
EXTT2=
EXTT3=
EXTT4=
EXTT5=
EXTT6=
EXTT7=
EXTT8=
EXTT9=
EXTT10=
EXTT11=
EXTT12=
EXTT13=
EXTT14=
EXTT15=
EXTT16=
EXTT17=
EXTT18=
EXTT19=
EXTT20=
PLAYORDER=
